# xmcd
#
# Track frame offsets: 
#        180
#        24275
#        33235
#        96755
#        101065
#        126630
#        151840
#        161060
#
# Disc length: 2614 seconds
#
# Revision: 2
# Processed by: cddbd v1.5.2PL0 Copyright (c) Steve Scherf et al.
# Submitted via: ExactAudioCopy v1.0b3
#
DISCID=5d0a3408
DTITLE=Michel Portal - Alors!!!
DYEAR=1970
DGENRE=Contemporary Jazz
TTITLE0=Oo Bam Ba Deep
TTITLE1=Billy The Kid
TTITLE2=Yes, Oh Yes, You Wondrous Sun Kissed Maiden!
TTITLE3=Ca Boom?
TTITLE4=Y En A Marre
TTITLE5=Undercurrent
TTITLE6=New Peace
TTITLE7=Ca Boom!
EXTD=
EXTT0=
EXTT1=
EXTT2=
EXTT3=
EXTT4=
EXTT5=
EXTT6=
EXTT7=
PLAYORDER=
